<svg
            width="24"
            height="24"
            viewBox="0 0 24 24"
            fill="none"
            xmlns="http://www.w3.org/2000/svg"
          >
            <path
              fillRule="evenodd"
              clipRule="evenodd"
              d="M21.6308 10.5947H6.6217C5.89077 10.5947 5.29736 11.1881 5.29736 11.919C5.29736 12.6499 5.89077 13.2433 6.6217 13.2433H21.6308C22.3617 13.2433 22.9551 12.6499 22.9551 11.919C22.9551 11.1881 22.3617 10.5947 21.6308 10.5947Z"
              fill="white"
            />
            <path
              fillRule="evenodd"
              clipRule="evenodd"
              d="M19.0351 17.2693L23.4495 12.8549C23.9669 12.3375 23.9669 11.5006 23.4495 10.983L19.0351 6.56859C18.5195 6.05127 17.679 6.05127 17.1633 6.56859C16.6459 7.08415 16.6459 7.92466 17.1633 8.44042L20.64 11.919L17.1633 15.3975C16.6459 15.913 16.6459 16.7536 17.1633 17.2693C17.6788 17.7866 18.5193 17.7866 19.0351 17.2693V17.2693Z"
              fill="white"
            />
            <path
              fillRule="evenodd"
              clipRule="evenodd"
              d="M11.919 21.1893H3.09011C2.97364 21.1893 2.86052 21.1434 2.77755 21.0605C2.69459 20.9775 2.64867 20.8644 2.64867 20.7479V3.09011C2.64867 2.97364 2.69459 2.86052 2.77755 2.77755C2.86052 2.69459 2.97364 2.64867 3.09011 2.64867H11.919C12.6499 2.64867 13.2433 2.05526 13.2433 1.32433C13.2433 0.593402 12.6499 0 11.919 0H3.09011C2.27089 0 1.48497 0.324974 0.905743 0.905743C0.324752 1.48492 0 2.27069 0 3.09011V20.7479C0 21.5671 0.324974 22.353 0.905743 22.9323C1.48492 23.5133 2.27069 23.838 3.09011 23.838H11.919C12.6499 23.838 13.2433 23.2446 13.2433 22.5137C13.2433 21.7827 12.6499 21.1893 11.919 21.1893Z"
              fill="white"
            />
          </svg>